<svg width="300" height="37" viewBox="0 0 300 37" fill="none" xmlns="http://www.w3.org/2000/svg">
<path d="M11.5332 28.7324C11.0631 28.9322 10.5375 28.9592 10.0495 28.8088L10.407 33.1011C10.4115 33.1526 10.4016 33.2043 10.3785 33.2505L10.0195 33.9685H11.5332V28.7324Z" fill="white"/>
<path d="M10.9377 27.5873C10.1086 25.9025 9.45916 24.1352 9 22.3145V26.6557C9.00049 27.1031 9.17844 27.5321 9.4948 27.8484C9.81116 28.1648 10.2401 28.3427 10.6875 28.3432C10.964 28.3437 11.2361 28.274 11.4783 28.1407C11.293 27.9923 11.1237 27.8252 10.9729 27.6419C10.959 27.6252 10.9472 27.6069 10.9377 27.5873Z" fill="white"/>
<path d="M14.9082 28.6211C14.4501 28.8449 13.9399 28.9401 13.4319 28.8967L13.782 33.1006C13.7865 33.1521 13.7766 33.2038 13.7535 33.25L13.3945 33.9682H14.9082V28.6211Z" fill="white"/>
<path d="M29.5332 28.6035C29.0882 28.8663 28.5643 28.9625 28.055 28.8749L28.407 33.1008C28.4115 33.1522 28.4016 33.2039 28.3785 33.2502L28.0195 33.9681H29.5332V28.6035Z" fill="white"/>
<path d="M24.6745 28.8095L25.032 33.1019C25.0365 33.1534 25.0266 33.2051 25.0035 33.2513L24.6445 33.9693H26.1582V28.7324C25.6884 28.9335 25.1625 28.9608 24.6745 28.8095Z" fill="white"/>
<path d="M30.3762 14.8438C30.1735 14.8447 29.9734 14.8896 29.7898 14.9755C29.6061 15.0613 29.4433 15.186 29.3125 15.3409C29.6979 15.5633 30.0224 15.8775 30.257 16.2556C30.4917 16.6336 30.6292 17.0638 30.6575 17.5079V17.6281C30.9993 17.5587 31.303 17.3648 31.5099 17.084C31.7167 16.8033 31.8118 16.4556 31.7768 16.1087C31.7417 15.7617 31.579 15.4401 31.3202 15.2064C31.0614 14.9726 30.725 14.8434 30.3762 14.8438Z" fill="white"/>
<path d="M5.13939 7.53612L5.0625 7.53668L4.98561 7.53612C4.9184 7.53351 4.8511 7.53609 4.78429 7.54382C4.7862 7.5526 4.78125 7.58061 4.78125 7.63006C4.78125 7.89814 4.92986 8.09862 5.0625 8.09862C5.19514 8.09862 5.34375 7.89814 5.34375 7.63006C5.34643 7.59534 5.34222 7.56043 5.33137 7.52734C5.26771 7.53531 5.20352 7.53824 5.13939 7.53612Z" fill="white"/>
<path d="M9.822 4.27423C9.61969 4.17551 9.39209 4.14082 9.16955 4.17478C8.94701 4.20874 8.74012 4.30973 8.57646 4.4643L5.754 7.15541C5.86175 7.28871 5.91627 7.45721 5.907 7.62836C5.91322 7.80398 5.87571 7.97838 5.79785 8.13592C5.72 8.29345 5.60422 8.42917 5.46094 8.5309C5.57991 8.76204 5.76664 8.95133 5.99614 9.07345C6.22563 9.19557 6.48695 9.24468 6.74513 9.21422L8.66325 9.01099C9.06053 8.97755 9.43371 8.80655 9.71844 8.52748C10.0032 8.24842 10.1816 7.87876 10.2231 7.48223L10.4035 5.24708C10.4187 5.04476 10.3709 4.84271 10.2668 4.66857C10.1627 4.49442 10.0074 4.3567 9.822 4.27423ZM9.00075 6.69045C8.8895 6.69045 8.78074 6.65746 8.68824 6.59565C8.59574 6.53385 8.52364 6.44599 8.48107 6.34321C8.43849 6.24043 8.42735 6.12733 8.44906 6.01821C8.47076 5.9091 8.52434 5.80887 8.603 5.7302C8.68167 5.65154 8.7819 5.59796 8.89101 5.57626C9.00013 5.55456 9.11323 5.5657 9.21601 5.60827C9.31879 5.65084 9.40664 5.72294 9.46845 5.81544C9.53026 5.90795 9.56325 6.0167 9.56325 6.12795C9.56325 6.27714 9.50399 6.42021 9.3985 6.5257C9.29301 6.63119 9.14993 6.69045 9.00075 6.69045Z" fill="white"/>
<path d="M27.5625 22.4375C26.7413 24.453 24.436 25.8125 21.8394 25.8125H20.9106C18.314 25.8125 16.0088 24.453 15.1875 22.4375" fill="white"/>
<path d="M26.2406 27.2374C26.223 27.1819 26.2085 27.1254 26.1972 27.0682C26.1703 26.9327 26.1565 26.7949 26.1562 26.6568V25.0332C25.3953 25.574 24.5351 25.9593 23.625 26.1669V26.6568C23.6255 27.1042 23.8034 27.5331 24.1198 27.8495C24.4362 28.1659 24.8651 28.3438 25.3125 28.3443C25.5345 28.3441 25.7542 28.2995 25.9587 28.2132C26.1632 28.1268 26.3484 28.0005 26.5034 27.8417C26.4865 27.8135 26.4697 27.7854 26.4534 27.7573C26.4521 27.7545 26.4221 27.6996 26.421 27.6968C26.3755 27.6124 26.3357 27.5251 26.3018 27.4354C26.2864 27.3947 26.2741 27.3524 26.2617 27.3096" fill="white"/>
<path d="M26.4394 23.8435C26.514 23.8435 26.5856 23.8731 26.6383 23.9259C26.6911 23.9786 26.7207 24.0501 26.7207 24.1247V26.656C26.7207 27.1035 26.8985 27.5328 27.2149 27.8492C27.5314 28.1657 27.9606 28.3435 28.4082 28.3435C28.8557 28.3435 29.285 28.1657 29.6014 27.8492C29.9179 27.5328 30.0957 27.1035 30.0957 26.656V17.5076C30.0957 15.9536 27.5946 14.281 22.1037 14.281H17.4394C16.7683 14.2802 16.1249 14.0133 15.6504 13.5388C15.1759 13.0642 14.9089 12.4208 14.9082 11.7497V7.04481C14.9087 6.32571 14.7143 5.61992 14.3457 5.00249V5.56223C14.3457 5.63682 14.3161 5.70836 14.2633 5.76111C14.2106 5.81385 14.139 5.84348 14.0644 5.84348C13.9898 5.84348 13.9183 5.81385 13.8656 5.76111C13.8128 5.70836 13.7832 5.63682 13.7832 5.56223V4.43723C13.7811 4.35693 13.7732 4.27688 13.7596 4.19772C13.756 4.17298 13.7555 4.14788 13.7582 4.12302C13.6905 3.70934 13.4929 3.32793 13.194 3.03403C12.8951 2.74013 12.5105 2.54899 12.0957 2.48828V4.43723C12.0957 4.51182 12.0661 4.58336 12.0133 4.6361C11.9606 4.68885 11.889 4.71848 11.8144 4.71848C11.7398 4.71848 11.6683 4.68885 11.6156 4.6361C11.5628 4.58336 11.5332 4.51182 11.5332 4.43723V3.08723C11.3233 3.05324 11.1111 3.03597 10.8985 3.03559H10.7842C10.2501 3.03262 9.72143 3.14262 9.23284 3.35837C8.74425 3.57413 8.30681 3.89076 7.94922 4.28749L8.18986 4.05788C8.43547 3.82382 8.74685 3.67056 9.08214 3.61871C9.41743 3.56686 9.76056 3.61891 10.0654 3.76786C10.355 3.89749 10.5972 4.11392 10.7584 4.3872C10.9197 4.66048 10.992 4.97711 10.9654 5.2933L10.7851 7.52822C10.7329 8.05542 10.4985 8.54793 10.1223 8.92085C9.746 9.29378 9.25142 9.52376 8.72378 9.57117L8.44551 9.60081C8.57354 9.77935 8.65786 9.88482 8.65892 9.88645C8.69889 9.93632 8.72067 9.99832 8.72069 10.0622V15.6444C8.7257 19.6879 9.65214 23.6772 11.4296 27.3091C11.7022 27.6337 12.0426 27.8945 12.4269 28.0732C12.8112 28.2519 13.23 28.3442 13.6538 28.3435C14.2846 28.3428 14.8894 28.0919 15.3355 27.6458C15.7816 27.1997 16.0325 26.5949 16.0332 25.9641V24.1247C16.0332 24.0501 16.0628 23.9786 16.1156 23.9259C16.1683 23.8731 16.2398 23.8435 16.3144 23.8435C16.389 23.8435 16.4606 23.8731 16.5133 23.9259C16.5661 23.9786 16.5957 24.0501 16.5957 24.1247H26.1582C26.1582 24.0501 26.1878 23.9786 26.2406 23.9259C26.2933 23.8731 26.3648 23.8435 26.4394 23.8435Z" fill="white"/>
<path d="M46.4588 12.32L44.9788 12.04V10.64H48.2388C48.4521 10.64 48.8654 10.6267 49.4788 10.6C50.2521 10.5467 50.9521 10.52 51.5788 10.52C53.0188 10.52 54.1521 10.6933 54.9788 11.04C55.8054 11.3867 56.3921 11.8867 56.7388 12.54C57.0854 13.18 57.2588 13.9933 57.2588 14.98C57.2588 16.6867 56.7388 18.0133 55.6988 18.96C54.6588 19.9067 53.1788 20.38 51.2588 20.38C50.6588 20.38 50.1988 20.36 49.8788 20.32V23.96L52.5188 24.18V25.5H44.9188V24.18L46.4588 23.98V12.32ZM49.8588 18.94C50.1254 19.0067 50.5654 19.04 51.1788 19.04C52.9121 19.04 53.7788 17.7133 53.7788 15.06C53.7788 13.9533 53.5588 13.1467 53.1188 12.64C52.6921 12.12 52.0454 11.86 51.1788 11.86C50.8054 11.86 50.5121 11.88 50.2988 11.92C50.0854 11.9467 49.9388 11.9667 49.8588 11.98V18.94ZM63.5781 25.72C61.7515 25.72 60.3981 25.2067 59.5181 24.18C58.6381 23.14 58.1981 21.7267 58.1981 19.94C58.1981 18.7267 58.4248 17.68 58.8781 16.8C59.3315 15.92 59.9648 15.2533 60.7781 14.8C61.6048 14.3333 62.5715 14.1 63.6781 14.1C65.0781 14.1 66.1448 14.4533 66.8781 15.16C67.6248 15.8667 68.0115 16.8667 68.0381 18.16C68.0381 19.0133 67.9781 19.7 67.8581 20.22H61.5981C61.6648 21.3533 61.9381 22.22 62.4181 22.82C62.9115 23.4067 63.5981 23.7 64.4781 23.7C64.9715 23.7 65.4848 23.62 66.0181 23.46C66.5648 23.2867 67.0048 23.0933 67.3381 22.88L67.8981 24.1C67.5515 24.4867 66.9581 24.8533 66.1181 25.2C65.2915 25.5467 64.4448 25.72 63.5781 25.72ZM64.8581 18.9L64.8781 18.06C64.8781 17.22 64.7648 16.58 64.5381 16.14C64.3115 15.7 63.9248 15.48 63.3781 15.48C62.8181 15.48 62.3848 15.7267 62.0781 16.22C61.7715 16.7 61.6048 17.5933 61.5781 18.9H64.8581ZM69.5123 24.18L70.7323 24V16.48L69.5523 16.12V14.56L72.8723 14.12H72.9323L73.4923 14.54V15.02L73.4323 16.68H73.4923C73.5857 16.3733 73.799 16.02 74.1323 15.62C74.4657 15.2067 74.8857 14.8533 75.3923 14.56C75.9123 14.2533 76.4723 14.1 77.0723 14.1C77.419 14.1 77.6857 14.1467 77.8723 14.24V17.72C77.659 17.56 77.4257 17.4333 77.1723 17.34C76.9323 17.2467 76.619 17.2 76.2323 17.2C75.7523 17.2 75.319 17.2667 74.9323 17.4C74.5457 17.52 74.239 17.66 74.0123 17.82V24L76.2123 24.2V25.5H69.5123V24.18ZM88.1217 25.7C87.6417 25.7 87.2951 25.6 87.0817 25.4C86.8684 25.1867 86.7617 24.88 86.7617 24.48V24.04C86.4417 24.48 85.9617 24.8733 85.3217 25.22C84.6817 25.5533 84.0351 25.72 83.3817 25.72C82.0751 25.72 81.1417 25.4 80.5817 24.76C80.0351 24.1067 79.7617 23.02 79.7617 21.5V15.94L78.8217 15.68V14.4L82.5817 14.14H82.6017L83.0417 14.42V21.58C83.0417 22.4467 83.1484 23.0533 83.3617 23.4C83.5751 23.7333 83.9551 23.9 84.5017 23.9C85.2484 23.9 85.8751 23.6467 86.3817 23.14V15.94L85.1417 15.64V14.4L89.1017 14.14H89.1617L89.6417 14.42V24.12H90.7017V25.4C90.2484 25.4933 89.8284 25.5667 89.4417 25.62C89.0684 25.6733 88.6284 25.7 88.1217 25.7ZM98.1189 12.32L96.6189 12.04V10.64H103.439V12.04L101.539 12.32V23.94L105.299 23.74L106.599 19.78L108.479 20.02L107.899 25.5H96.5789V24.18L98.1189 23.98V12.32ZM118.551 25.7C118.071 25.7 117.725 25.6 117.511 25.4C117.298 25.1867 117.191 24.88 117.191 24.48V24.04C116.871 24.48 116.391 24.8733 115.751 25.22C115.111 25.5533 114.465 25.72 113.811 25.72C112.505 25.72 111.571 25.4 111.011 24.76C110.465 24.1067 110.191 23.02 110.191 21.5V15.94L109.251 15.68V14.4L113.011 14.14H113.031L113.471 14.42V21.58C113.471 22.4467 113.578 23.0533 113.791 23.4C114.005 23.7333 114.385 23.9 114.931 23.9C115.678 23.9 116.305 23.6467 116.811 23.14V15.94L115.571 15.64V14.4L119.531 14.14H119.591L120.071 14.42V24.12H121.131V25.4C120.678 25.4933 120.258 25.5667 119.871 25.62C119.498 25.6733 119.058 25.7 118.551 25.7ZM125.943 20.08L122.683 15.88L121.683 15.66V14.38H127.923V15.66L126.683 15.88L128.083 17.9L128.583 18.72L129.083 17.88L130.523 15.88L129.243 15.66V14.38H133.663V15.66L132.543 15.88L129.503 19.64L132.903 24L133.983 24.2V25.5H127.783V24.2L128.883 24L127.523 21.86L126.923 21L126.463 21.86L125.023 24L126.483 24.2V25.5H121.583V24.2L122.823 24L125.943 20.08ZM143.63 25.7C143.15 25.7 142.803 25.6 142.59 25.4C142.376 25.1867 142.27 24.88 142.27 24.48V24.04C141.95 24.48 141.47 24.8733 140.83 25.22C140.19 25.5533 139.543 25.72 138.89 25.72C137.583 25.72 136.65 25.4 136.09 24.76C135.543 24.1067 135.27 23.02 135.27 21.5V15.94L134.33 15.68V14.4L138.09 14.14H138.11L138.55 14.42V21.58C138.55 22.4467 138.656 23.0533 138.87 23.4C139.083 23.7333 139.463 23.9 140.01 23.9C140.756 23.9 141.383 23.6467 141.89 23.14V15.94L140.65 15.64V14.4L144.61 14.14H144.67L145.15 14.42V24.12H146.21V25.4C145.756 25.4933 145.336 25.5667 144.95 25.62C144.576 25.6733 144.136 25.7 143.63 25.7ZM147.501 24.18L148.721 24V16.48L147.541 16.12V14.56L150.861 14.12H150.921L151.481 14.54V15.02L151.421 16.68H151.481C151.574 16.3733 151.787 16.02 152.121 15.62C152.454 15.2067 152.874 14.8533 153.381 14.56C153.901 14.2533 154.461 14.1 155.061 14.1C155.407 14.1 155.674 14.1467 155.861 14.24V17.72C155.647 17.56 155.414 17.4333 155.161 17.34C154.921 17.2467 154.607 17.2 154.221 17.2C153.741 17.2 153.307 17.2667 152.921 17.4C152.534 17.52 152.227 17.66 152.001 17.82V24L154.201 24.2V25.5H147.501V24.18ZM159.05 30.48C158.77 30.48 158.477 30.46 158.17 30.42C157.877 30.38 157.663 30.3267 157.53 30.26V27.86C157.623 27.9267 157.823 27.9867 158.13 28.04C158.437 28.1067 158.717 28.14 158.97 28.14C159.65 28.14 160.19 27.9267 160.59 27.5C160.99 27.0733 161.357 26.4067 161.69 25.5H160.53L156.79 15.9L155.91 15.66V14.38H161.81V15.66L160.41 15.9L162.07 21.22L162.67 23.24L163.15 21.22L164.69 15.88L163.49 15.66V14.38H168.01V15.66L167.05 15.88C166.49 17.6 165.803 19.62 164.99 21.94C164.19 24.26 163.743 25.5267 163.65 25.74C163.25 26.8467 162.843 27.7333 162.43 28.4C162.03 29.08 161.557 29.5933 161.01 29.94C160.463 30.3 159.81 30.48 159.05 30.48ZM180.141 25.72C178.648 25.72 177.368 25.3933 176.301 24.74C175.234 24.0867 174.428 23.1933 173.881 22.06C173.334 20.9267 173.061 19.64 173.061 18.2C173.061 16.5467 173.374 15.14 174.001 13.98C174.628 12.82 175.521 11.9467 176.681 11.36C177.854 10.76 179.241 10.46 180.841 10.46C181.761 10.46 182.674 10.5267 183.581 10.66C184.488 10.7933 185.254 10.9333 185.881 11.08L185.641 14.94H183.241L182.681 12.3C182.561 12.1667 182.341 12.0533 182.021 11.96C181.714 11.8533 181.294 11.8 180.761 11.8C179.574 11.8 178.654 12.3267 178.001 13.38C177.348 14.42 177.021 15.9333 177.021 17.92C177.021 19.8933 177.294 21.46 177.841 22.62C178.401 23.7667 179.268 24.34 180.441 24.34C180.921 24.34 181.354 24.28 181.741 24.16C182.141 24.0267 182.441 23.86 182.641 23.66V19.48L180.781 19.28V17.82H187.021V19.28L186.021 19.44V24.7C185.794 24.7133 185.268 24.82 184.441 25.02C183.628 25.2333 182.894 25.4 182.241 25.52C181.588 25.6533 180.888 25.72 180.141 25.72ZM193.402 25.72C191.576 25.72 190.222 25.2067 189.342 24.18C188.462 23.14 188.022 21.7267 188.022 19.94C188.022 18.7267 188.249 17.68 188.702 16.8C189.156 15.92 189.789 15.2533 190.602 14.8C191.429 14.3333 192.396 14.1 193.502 14.1C194.902 14.1 195.969 14.4533 196.702 15.16C197.449 15.8667 197.836 16.8667 197.862 18.16C197.862 19.0133 197.802 19.7 197.682 20.22H191.422C191.489 21.3533 191.762 22.22 192.242 22.82C192.736 23.4067 193.422 23.7 194.302 23.7C194.796 23.7 195.309 23.62 195.842 23.46C196.389 23.2867 196.829 23.0933 197.162 22.88L197.722 24.1C197.376 24.4867 196.782 24.8533 195.942 25.2C195.116 25.5467 194.269 25.72 193.402 25.72ZM194.682 18.9L194.702 18.06C194.702 17.22 194.589 16.58 194.362 16.14C194.136 15.7 193.749 15.48 193.202 15.48C192.642 15.48 192.209 15.7267 191.902 16.22C191.596 16.7 191.429 17.5933 191.402 18.9H194.682ZM202.697 25.68C201.817 25.68 201.163 25.48 200.737 25.08C200.323 24.6667 200.117 24.0333 200.117 23.18V16.06H198.897V14.9L199.297 14.74C199.617 14.6333 199.897 14.52 200.137 14.4C200.403 14.1467 200.617 13.8133 200.777 13.4C200.977 12.92 201.197 12.2467 201.437 11.38H203.297L203.417 14.38H206.277V16.06H203.457V21.36C203.457 22.0933 203.477 22.6067 203.517 22.9C203.557 23.1933 203.63 23.3867 203.737 23.48C203.857 23.56 204.07 23.6 204.377 23.6C205.003 23.6 205.597 23.4933 206.157 23.28L206.577 24.54C206.203 24.8467 205.65 25.1133 204.917 25.34C204.183 25.5667 203.443 25.68 202.697 25.68ZM216.627 10.58H220.227L224.707 23.98L225.807 24.18V25.5H219.507V24.18L220.927 23.98L220.247 21.58H215.467L214.787 24L216.347 24.18V25.5H211.027L211.007 24.18L212.167 23.96L216.627 10.58ZM218.107 14.06L217.807 12.66L217.487 14.08L215.867 20.04H219.827L218.107 14.06ZM225.167 14.4H230.647V15.66L229.307 15.88L230.667 20.86L231.087 22.84L231.447 20.86L233.167 14.4H235.867L237.847 20.86L238.267 22.82L238.667 20.86L239.927 15.9L238.487 15.66V14.4H242.887V15.66L241.927 15.88L238.907 25.66H236.367L234.387 19.54L233.967 17.22L233.667 19.54L231.887 25.66H229.287L226.107 15.88L225.167 15.66V14.4ZM242.904 22.3C242.904 21.1267 243.497 20.2267 244.684 19.6C245.884 18.9733 247.457 18.6533 249.404 18.64V18.24C249.404 17.76 249.35 17.38 249.244 17.1C249.137 16.82 248.944 16.6133 248.664 16.48C248.384 16.3333 247.97 16.26 247.424 16.26C246.77 16.26 246.184 16.34 245.664 16.5C245.157 16.6467 244.624 16.8467 244.064 17.1L243.384 15.66C243.597 15.4867 243.944 15.28 244.424 15.04C244.904 14.7867 245.477 14.5733 246.144 14.4C246.824 14.2133 247.53 14.12 248.264 14.12C249.33 14.12 250.164 14.26 250.764 14.54C251.377 14.82 251.81 15.2533 252.064 15.84C252.33 16.4267 252.464 17.2267 252.464 18.24V24.18H253.504V25.44C253.197 25.5067 252.77 25.5733 252.224 25.64C251.677 25.7067 251.21 25.74 250.824 25.74C250.317 25.74 249.977 25.6667 249.804 25.52C249.644 25.3733 249.564 25.08 249.564 24.64V24.18C249.23 24.58 248.784 24.94 248.224 25.26C247.664 25.5667 247.017 25.72 246.284 25.72C245.657 25.72 245.084 25.5867 244.564 25.32C244.057 25.04 243.65 24.6467 243.344 24.14C243.05 23.62 242.904 23.0067 242.904 22.3ZM247.844 23.88C248.084 23.88 248.35 23.8133 248.644 23.68C248.937 23.5333 249.19 23.36 249.404 23.16V19.98C248.364 19.98 247.59 20.1667 247.084 20.54C246.59 20.9133 246.344 21.3933 246.344 21.98C246.344 22.58 246.477 23.0467 246.744 23.38C247.01 23.7133 247.377 23.88 247.844 23.88ZM256.55 30.48C256.27 30.48 255.977 30.46 255.67 30.42C255.377 30.38 255.163 30.3267 255.03 30.26V27.86C255.123 27.9267 255.323 27.9867 255.63 28.04C255.937 28.1067 256.217 28.14 256.47 28.14C257.15 28.14 257.69 27.9267 258.09 27.5C258.49 27.0733 258.857 26.4067 259.19 25.5H258.03L254.29 15.9L253.41 15.66V14.38H259.31V15.66L257.91 15.9L259.57 21.22L260.17 23.24L260.65 21.22L262.19 15.88L260.99 15.66V14.38H265.51V15.66L264.55 15.88C263.99 17.6 263.303 19.62 262.49 21.94C261.69 24.26 261.243 25.5267 261.15 25.74C260.75 26.8467 260.343 27.7333 259.93 28.4C259.53 29.08 259.057 29.5933 258.51 29.94C257.963 30.3 257.31 30.48 256.55 30.48ZM268.555 23.84C268.648 23.9867 268.862 24.12 269.195 24.24C269.542 24.36 269.888 24.42 270.235 24.42C270.782 24.42 271.195 24.3067 271.475 24.08C271.768 23.84 271.915 23.5333 271.915 23.16C271.915 22.76 271.728 22.4333 271.355 22.18C270.982 21.9133 270.368 21.5933 269.515 21.22L268.755 20.88C267.888 20.4933 267.235 20.0267 266.795 19.48C266.368 18.92 266.155 18.2133 266.155 17.36C266.155 16.7467 266.335 16.2 266.695 15.72C267.055 15.2267 267.575 14.84 268.255 14.56C268.935 14.28 269.735 14.14 270.655 14.14C271.295 14.14 271.848 14.18 272.315 14.26C272.782 14.34 273.255 14.44 273.735 14.56C274.055 14.6533 274.295 14.7067 274.455 14.72V17.44H272.675L272.155 15.9C272.088 15.78 271.928 15.6733 271.675 15.58C271.422 15.4733 271.135 15.42 270.815 15.42C270.308 15.42 269.908 15.5333 269.615 15.76C269.322 15.9733 269.175 16.2667 269.175 16.64C269.175 17.0667 269.342 17.4067 269.675 17.66C270.008 17.9 270.542 18.1867 271.275 18.52L271.695 18.7C272.775 19.1533 273.622 19.6467 274.235 20.18C274.848 20.7 275.155 21.42 275.155 22.34C275.155 23.3267 274.762 24.14 273.975 24.78C273.188 25.4067 272.028 25.72 270.495 25.72C269.788 25.72 269.162 25.66 268.615 25.54C268.068 25.4333 267.468 25.2867 266.815 25.1L266.155 24.92V22.26H268.055L268.555 23.84Z" fill="white"/>
</svg>
